<svg width="206" height="72" viewBox="0 0 206 72" fill="none" xmlns="http://www.w3.org/2000/svg">
<path d="M13.1313 47.36C10.8513 47.36 8.8953 46.988 7.2633 46.244C5.6553 45.5 4.3953 44.408 3.4833 42.968C2.5953 41.528 2.1033 39.74 2.0073 37.604C1.9833 36.62 1.9713 35.564 1.9713 34.436C1.9713 33.308 1.9833 32.228 2.0073 31.196C2.1033 29.108 2.6073 27.344 3.5193 25.904C4.4313 24.44 5.7033 23.336 7.3353 22.592C8.9673 21.824 10.8993 21.44 13.1313 21.44C14.7153 21.44 16.1793 21.644 17.5233 22.052C18.8673 22.436 20.0433 23.012 21.0513 23.78C22.0593 24.524 22.8393 25.436 23.3913 26.516C23.9673 27.572 24.2673 28.772 24.2913 30.116C24.3153 30.332 24.2433 30.512 24.0753 30.656C23.9313 30.8 23.7513 30.872 23.5353 30.872H18.6753C18.3633 30.872 18.1233 30.812 17.9553 30.692C17.7873 30.548 17.6433 30.296 17.5233 29.936C17.1873 28.664 16.6353 27.8 15.8673 27.344C15.1233 26.864 14.1993 26.624 13.0953 26.624C11.7753 26.624 10.7313 26.996 9.9633 27.74C9.1953 28.46 8.7753 29.672 8.7033 31.376C8.6313 33.344 8.6313 35.36 8.7033 37.424C8.7753 39.128 9.1953 40.352 9.9633 41.096C10.7313 41.816 11.7753 42.176 13.0953 42.176C14.1993 42.176 15.1353 41.936 15.9033 41.456C16.6713 40.976 17.2113 40.112 17.5233 38.864C17.6193 38.504 17.7513 38.264 17.9193 38.144C18.1113 38 18.3633 37.928 18.6753 37.928H23.5353C23.7513 37.928 23.9313 38 24.0753 38.144C24.2433 38.288 24.3153 38.468 24.2913 38.684C24.2673 40.028 23.9673 41.24 23.3913 42.32C22.8393 43.376 22.0593 44.288 21.0513 45.056C20.0433 45.8 18.8673 46.376 17.5233 46.784C16.1793 47.168 14.7153 47.36 13.1313 47.36ZM34.5566 47.36C33.1886 47.36 31.9646 47.048 30.8846 46.424C29.8286 45.8 29.0006 44.888 28.4006 43.688C27.8006 42.464 27.5006 40.976 27.5006 39.224V29.18C27.5006 28.916 27.5846 28.7 27.7526 28.532C27.9206 28.364 28.1366 28.28 28.4006 28.28H32.9006C33.1646 28.28 33.3806 28.364 33.5486 28.532C33.7166 28.7 33.8006 28.916 33.8006 29.18V39.008C33.8006 41.36 34.8566 42.536 36.9686 42.536C37.9526 42.536 38.7326 42.236 39.3086 41.636C39.9086 41.012 40.2086 40.136 40.2086 39.008V29.18C40.2086 28.916 40.2926 28.7 40.4606 28.532C40.6286 28.364 40.8446 28.28 41.1086 28.28H45.6086C45.8726 28.28 46.0886 28.364 46.2566 28.532C46.4246 28.7 46.5086 28.916 46.5086 29.18V46.1C46.5086 46.364 46.4246 46.58 46.2566 46.748C46.0886 46.916 45.8726 47 45.6086 47H41.4326C41.1926 47 40.9766 46.916 40.7846 46.748C40.6166 46.58 40.5326 46.364 40.5326 46.1V44.732C39.9086 45.596 39.0926 46.256 38.0846 46.712C37.1006 47.144 35.9246 47.36 34.5566 47.36ZM62.1911 47.36C60.8471 47.36 59.7191 47.132 58.8071 46.676C57.9191 46.22 57.1871 45.644 56.6111 44.948V46.1C56.6111 46.364 56.5151 46.58 56.3231 46.748C56.1551 46.916 55.9511 47 55.7111 47H51.6431C51.3791 47 51.1631 46.916 50.9951 46.748C50.8271 46.58 50.7431 46.364 50.7431 46.1V22.34C50.7431 22.076 50.8271 21.86 50.9951 21.692C51.1631 21.524 51.3791 21.44 51.6431 21.44H56.0351C56.2991 21.44 56.5151 21.524 56.6831 21.692C56.8511 21.86 56.9351 22.076 56.9351 22.34V30.044C57.5111 29.42 58.2311 28.916 59.0951 28.532C59.9831 28.124 61.0151 27.92 62.1911 27.92C63.3911 27.92 64.4471 28.124 65.3591 28.532C66.2951 28.916 67.0871 29.48 67.7351 30.224C68.3831 30.968 68.8871 31.856 69.2471 32.888C69.6071 33.92 69.8111 35.084 69.8591 36.38C69.8831 36.836 69.8951 37.256 69.8951 37.64C69.8951 38 69.8831 38.42 69.8591 38.9C69.8111 40.244 69.5951 41.444 69.2111 42.5C68.8511 43.532 68.3471 44.42 67.6991 45.164C67.0511 45.884 66.2711 46.436 65.3591 46.82C64.4471 47.18 63.3911 47.36 62.1911 47.36ZM60.2471 42.536C61.0631 42.536 61.6991 42.368 62.1551 42.032C62.6111 41.696 62.9351 41.24 63.1271 40.664C63.3431 40.088 63.4751 39.452 63.5231 38.756C63.5711 38.012 63.5711 37.268 63.5231 36.524C63.4751 35.828 63.3431 35.192 63.1271 34.616C62.9351 34.04 62.6111 33.584 62.1551 33.248C61.6991 32.912 61.0631 32.744 60.2471 32.744C59.5031 32.744 58.8911 32.912 58.4111 33.248C57.9311 33.56 57.5711 33.98 57.3311 34.508C57.0911 35.012 56.9591 35.564 56.9351 36.164C56.9111 36.62 56.8991 37.064 56.8991 37.496C56.8991 37.928 56.9111 38.384 56.9351 38.864C56.9591 39.512 57.0791 40.112 57.2951 40.664C57.5111 41.216 57.8591 41.672 58.3391 42.032C58.8191 42.368 59.4551 42.536 60.2471 42.536ZM82.3101 47.36C80.2941 47.36 78.5901 47.036 77.1981 46.388C75.8301 45.74 74.7741 44.816 74.0301 43.616C73.3101 42.392 72.9021 40.94 72.8061 39.26C72.7821 38.78 72.7701 38.24 72.7701 37.64C72.7701 37.016 72.7821 36.476 72.8061 36.02C72.9021 34.316 73.3341 32.864 74.1021 31.664C74.8701 30.464 75.9381 29.54 77.3061 28.892C78.6981 28.244 80.3661 27.92 82.3101 27.92C84.2781 27.92 85.9461 28.244 87.3141 28.892C88.7061 29.54 89.7861 30.464 90.5541 31.664C91.3221 32.864 91.7541 34.316 91.8501 36.02C91.8741 36.476 91.8861 37.016 91.8861 37.64C91.8861 38.24 91.8741 38.78 91.8501 39.26C91.7541 40.94 91.3341 42.392 90.5901 43.616C89.8701 44.816 88.8141 45.74 87.4221 46.388C86.0541 47.036 84.3501 47.36 82.3101 47.36ZM82.3101 42.968C83.3901 42.968 84.1701 42.644 84.6501 41.996C85.1541 41.348 85.4421 40.376 85.5141 39.08C85.5381 38.72 85.5501 38.24 85.5501 37.64C85.5501 37.04 85.5381 36.56 85.5141 36.2C85.4421 34.928 85.1541 33.968 84.6501 33.32C84.1701 32.648 83.3901 32.312 82.3101 32.312C81.2541 32.312 80.4741 32.648 79.9701 33.32C79.4661 33.968 79.1901 34.928 79.1421 36.2C79.1181 36.56 79.1061 37.04 79.1061 37.64C79.1061 38.24 79.1181 38.72 79.1421 39.08C79.1901 40.376 79.4661 41.348 79.9701 41.996C80.4741 42.644 81.2541 42.968 82.3101 42.968Z" fill="#FA00FF"/>
<path d="M118.438 47C118.174 47 117.958 46.916 117.79 46.748C117.622 46.58 117.538 46.364 117.538 46.1V22.7C117.538 22.436 117.622 22.22 117.79 22.052C117.958 21.884 118.174 21.8 118.438 21.8H129.418C131.482 21.8 133.174 22.088 134.494 22.664C135.814 23.24 136.786 24.068 137.41 25.148C138.058 26.204 138.382 27.464 138.382 28.928C138.382 29.792 138.214 30.56 137.878 31.232C137.566 31.88 137.17 32.42 136.69 32.852C136.234 33.284 135.802 33.596 135.394 33.788C136.306 34.22 137.11 34.928 137.806 35.912C138.526 36.896 138.886 38.048 138.886 39.368C138.886 40.952 138.526 42.32 137.806 43.472C137.11 44.6 136.078 45.476 134.71 46.1C133.366 46.7 131.71 47 129.742 47H118.438ZM123.982 42.32H129.022C130.054 42.32 130.834 42.02 131.362 41.42C131.89 40.82 132.154 40.136 132.154 39.368C132.154 38.528 131.878 37.82 131.326 37.244C130.798 36.668 130.03 36.38 129.022 36.38H123.982V42.32ZM123.982 31.808H128.698C129.682 31.808 130.414 31.556 130.894 31.052C131.398 30.548 131.65 29.9 131.65 29.108C131.65 28.34 131.398 27.716 130.894 27.236C130.414 26.732 129.682 26.48 128.698 26.48H123.982V31.808ZM148.105 47.36C146.809 47.36 145.645 47.12 144.613 46.64C143.605 46.136 142.801 45.464 142.201 44.624C141.601 43.784 141.301 42.836 141.301 41.78C141.301 40.076 141.997 38.732 143.389 37.748C144.781 36.74 146.629 36.056 148.933 35.696L153.433 35.012V34.508C153.433 33.644 153.253 32.984 152.893 32.528C152.533 32.072 151.873 31.844 150.913 31.844C150.241 31.844 149.689 31.976 149.257 32.24C148.849 32.504 148.525 32.864 148.285 33.32C148.069 33.632 147.769 33.788 147.385 33.788H143.353C143.089 33.788 142.885 33.716 142.741 33.572C142.597 33.404 142.537 33.212 142.561 32.996C142.561 32.564 142.717 32.072 143.029 31.52C143.365 30.944 143.869 30.38 144.541 29.828C145.213 29.276 146.077 28.82 147.133 28.46C148.189 28.1 149.461 27.92 150.949 27.92C152.509 27.92 153.841 28.1 154.945 28.46C156.049 28.82 156.937 29.324 157.609 29.972C158.305 30.62 158.821 31.388 159.157 32.276C159.493 33.14 159.661 34.1 159.661 35.156V46.1C159.661 46.364 159.565 46.58 159.373 46.748C159.205 46.916 159.001 47 158.761 47H154.585C154.321 47 154.105 46.916 153.937 46.748C153.769 46.58 153.685 46.364 153.685 46.1V44.84C153.373 45.296 152.953 45.716 152.425 46.1C151.897 46.484 151.273 46.784 150.553 47C149.857 47.24 149.041 47.36 148.105 47.36ZM149.797 43.256C150.493 43.256 151.117 43.112 151.669 42.824C152.245 42.512 152.689 42.044 153.001 41.42C153.337 40.772 153.505 39.968 153.505 39.008V38.504L150.445 39.044C149.317 39.236 148.489 39.536 147.961 39.944C147.457 40.328 147.205 40.784 147.205 41.312C147.205 41.72 147.325 42.068 147.565 42.356C147.805 42.644 148.117 42.872 148.501 43.04C148.885 43.184 149.317 43.256 149.797 43.256ZM164.624 47C164.36 47 164.144 46.916 163.976 46.748C163.808 46.58 163.724 46.364 163.724 46.1V29.18C163.724 28.916 163.808 28.7 163.976 28.532C164.144 28.364 164.36 28.28 164.624 28.28H168.764C169.028 28.28 169.244 28.364 169.412 28.532C169.58 28.7 169.664 28.916 169.664 29.18V30.548C170.288 29.804 171.104 29.18 172.112 28.676C173.12 28.172 174.308 27.92 175.676 27.92C177.068 27.92 178.292 28.232 179.348 28.856C180.428 29.48 181.268 30.404 181.868 31.628C182.492 32.828 182.804 34.304 182.804 36.056V46.1C182.804 46.364 182.708 46.58 182.516 46.748C182.348 46.916 182.144 47 181.904 47H177.368C177.128 47 176.912 46.916 176.72 46.748C176.552 46.58 176.468 46.364 176.468 46.1V36.272C176.468 35.144 176.192 34.28 175.64 33.68C175.112 33.056 174.32 32.744 173.264 32.744C172.28 32.744 171.488 33.056 170.888 33.68C170.312 34.28 170.024 35.144 170.024 36.272V46.1C170.024 46.364 169.928 46.58 169.736 46.748C169.568 46.916 169.364 47 169.124 47H164.624ZM187.721 47C187.457 47 187.241 46.916 187.073 46.748C186.905 46.58 186.821 46.364 186.821 46.1V22.34C186.821 22.076 186.905 21.86 187.073 21.692C187.241 21.524 187.457 21.44 187.721 21.44H191.897C192.137 21.44 192.341 21.524 192.509 21.692C192.701 21.86 192.797 22.076 192.797 22.34V34.4L197.801 28.892C197.945 28.724 198.101 28.58 198.269 28.46C198.437 28.34 198.677 28.28 198.989 28.28H203.813C204.029 28.28 204.209 28.364 204.353 28.532C204.521 28.676 204.605 28.856 204.605 29.072C204.605 29.168 204.581 29.276 204.533 29.396C204.485 29.516 204.413 29.612 204.317 29.684L197.837 36.668L205.217 45.632C205.409 45.824 205.505 46.016 205.505 46.208C205.505 46.424 205.421 46.616 205.253 46.784C205.109 46.928 204.917 47 204.677 47H199.745C199.385 47 199.121 46.94 198.953 46.82C198.785 46.676 198.629 46.532 198.485 46.388L192.797 39.548V46.1C192.797 46.364 192.701 46.58 192.509 46.748C192.341 46.916 192.137 47 191.897 47H187.721Z" fill="white"/>
<path d="M114.412 29.4806C111.274 26.4886 103.641 21.6527 100.703 26.8374C95.239 36.478 114.495 37.0988 108.421 45.4788C105.001 50.1967 95.8741 44.6742 93.6186 41.6345" stroke="url(#paint0_linear_3_97)" stroke-width="5" stroke-linecap="round" stroke-linejoin="round"/>
<path d="M111.079 20.51L108.858 25.6507M99.9737 46.2135L97.7526 51.3542" stroke="url(#paint1_linear_3_97)" stroke-width="5" stroke-linecap="round" stroke-linejoin="round"/>
<defs>
<linearGradient id="paint0_linear_3_97" x1="108.862" y1="25.6524" x2="99.9777" y2="46.2152" gradientUnits="userSpaceOnUse">
<stop stop-color="#8F00FF"/>
<stop offset="1" stop-color="#FA00FF"/>
</linearGradient>
<linearGradient id="paint1_linear_3_97" x1="111.538" y1="20.7083" x2="98.2116" y2="51.5525" gradientUnits="userSpaceOnUse">
<stop stop-color="#8F00FF"/>
<stop offset="1" stop-color="#FA00FF"/>
</linearGradient>
</defs>
</svg>
